<svg xmlns="http://www.w3.org/2000/svg" width="19.2" height="20" viewBox="0 0 19.2 20">
  <path id="instagram.svg" d="M9.6,4.872A5.02,5.02,0,0,0,4.681,10,5.02,5.02,0,0,0,9.6,15.128,5.02,5.02,0,0,0,14.524,10,5.02,5.02,0,0,0,9.6,4.872Zm0,8.461A3.275,3.275,0,0,1,6.4,10,3.272,3.272,0,0,1,9.6,6.666,3.272,3.272,0,0,1,12.8,10,3.275,3.275,0,0,1,9.6,13.334Zm6.271-8.671a1.149,1.149,0,1,1-2.3,0,1.149,1.149,0,1,1,2.3,0Zm3.26,1.214a6.059,6.059,0,0,0-1.55-4.191A5.593,5.593,0,0,0,13.56.07c-1.585-.094-6.335-.094-7.92,0A5.584,5.584,0,0,0,1.618,1.681,6.079,6.079,0,0,0,.067,5.872c-.09,1.651-.09,6.6,0,8.252a6.059,6.059,0,0,0,1.551,4.191A5.6,5.6,0,0,0,5.64,19.93c1.585.094,6.335.094,7.92,0a5.556,5.556,0,0,0,4.022-1.616,6.1,6.1,0,0,0,1.55-4.191C19.222,12.472,19.222,7.528,19.132,5.876ZM17.085,15.9a3.31,3.31,0,0,1-1.825,1.9C14,18.319,11,18.2,9.6,18.2s-4.4.116-5.658-.4a3.31,3.31,0,0,1-1.825-1.9c-.5-1.316-.385-4.44-.385-5.9s-.111-4.583.385-5.9A3.31,3.31,0,0,1,3.944,2.2c1.264-.522,4.262-.4,5.658-.4s4.4-.116,5.658.4a3.31,3.31,0,0,1,1.825,1.9c.5,1.317.385,4.44.385,5.9S17.586,14.583,17.085,15.9Z" fill="rgba(0,0,0,0.75)"/>
</svg>
