<svg xmlns="http://www.w3.org/2000/svg" width="72" height="75" viewBox="0 0 72 75">
  <path id="instagram" d="M36.008,18.271c-10.216,0-18.456,8.585-18.456,19.229s8.24,19.229,18.456,19.229S54.464,48.144,54.464,37.5,46.224,18.271,36.008,18.271Zm0,31.73a12.28,12.28,0,0,1-12-12.5,12.269,12.269,0,0,1,12-12.5,12.269,12.269,0,0,1,12,12.5A12.28,12.28,0,0,1,36.008,50ZM59.523,17.484a4.308,4.308,0,1,1-8.609,0,4.308,4.308,0,1,1,8.609,0Zm12.224,4.552c-.273-6.008-1.59-11.33-5.815-15.715C61.724,1.937,56.616.565,50.85.264c-5.943-.351-23.756-.351-29.7,0C15.4.548,10.292,1.92,6.068,6.305S.542,16.012.253,22.02c-.337,6.192-.337,24.752,0,30.944.273,6.008,1.59,11.33,5.815,15.715s9.316,5.757,15.083,6.058c5.943.352,23.756.352,29.7,0,5.766-.285,10.874-1.657,15.083-6.058,4.208-4.385,5.525-9.707,5.815-15.715C72.084,46.771,72.084,28.229,71.747,22.036ZM64.069,59.608a12.414,12.414,0,0,1-6.843,7.129c-4.739,1.958-15.982,1.506-21.219,1.506s-16.5.435-21.218-1.506a12.414,12.414,0,0,1-6.843-7.129C6.068,54.671,6.5,42.956,6.5,37.5S6.084,20.313,7.947,15.392A12.414,12.414,0,0,1,14.79,8.263c4.738-1.958,15.982-1.506,21.218-1.506s16.5-.435,21.219,1.506a12.414,12.414,0,0,1,6.843,7.129c1.879,4.937,1.446,16.652,1.446,22.108S65.949,54.687,64.069,59.608Z" fill="#f45a72"/>
</svg>
